<svg width="42" height="42" viewBox="0 0 42 42" fill="none" xmlns="http://www.w3.org/2000/svg">
<path fill-rule="evenodd" clip-rule="evenodd" d="M20.7061 0C23.5671 0 26.2574 0.544169 28.7754 1.63184C31.293 2.7194 33.4848 4.19585 35.3506 6.06152C37.2166 7.9275 38.6989 10.1197 39.7959 12.6377C40.8932 15.156 41.4414 17.8367 41.4414 20.6787C41.4414 23.5583 40.8972 26.2575 39.8096 28.7754C38.722 31.2934 37.2407 33.4901 35.3652 35.3652C33.49 37.2404 31.2932 38.7219 28.7754 39.8096C26.2574 40.8972 23.5671 41.4414 20.7061 41.4414C17.8452 41.4413 15.1556 40.8972 12.6377 39.8096C10.1199 38.7219 7.92308 37.2405 6.04785 35.3652C4.17234 33.49 2.69514 31.2935 1.61719 28.7754C0.53888 26.2575 2.61885e-05 23.5583 0 20.6787C0 17.8367 0.544169 15.156 1.63184 12.6377C2.71949 10.1199 4.19562 7.92743 6.06152 6.06152C7.92743 4.19562 10.1199 2.71949 12.6377 1.63184C15.1556 0.544226 17.8452 5.65571e-05 20.7061 0ZM20.7061 3.98926C18.7972 3.98931 16.9633 4.29717 15.2041 4.91211C13.4448 5.52744 11.8263 6.42823 10.3496 7.61523L16.3672 13.6328L13.6426 16.3564L7.59375 10.3223C6.42151 11.7802 5.52309 13.3979 4.89844 15.1758C4.27377 16.9538 3.96094 18.7884 3.96094 20.6787C3.96099 25.368 5.58444 29.3407 8.83105 32.5967C12.0776 35.8525 16.036 37.4804 20.7061 37.4805C22.6267 37.4805 24.4868 37.1764 26.2852 36.5684C28.0834 35.9604 29.6945 35.0343 31.1191 33.791L26.3857 29.0693L29.0947 26.3604L33.7979 31.0635C34.8992 29.6201 35.7838 28.0078 36.4512 26.2285C37.1184 24.4491 37.4521 22.5991 37.4521 20.6787C37.4521 16.027 35.8287 12.0821 32.582 8.84473C29.3354 5.60781 25.3763 3.98926 20.7061 3.98926Z" fill="#F2994A"/>
<path fill-rule="evenodd" clip-rule="evenodd" d="M26.9996 7.88477C27.5976 8.48277 28.0564 9.16845 28.3765 9.94141C28.6965 10.7145 28.8616 11.5268 28.8707 12.3779C28.8805 12.8395 28.8332 13.304 28.73 13.7705C28.6284 14.2303 28.4851 14.6681 28.3023 15.085C29.0324 15.0536 29.7537 15.1647 30.4664 15.4199C31.3865 15.7497 32.1906 16.2574 32.8775 16.9443L34.4088 18.4766L32.8775 20.0088C32.2621 20.6242 31.5522 21.0976 30.7486 21.4287C29.9986 21.7376 29.2148 21.8908 28.398 21.8936L29.6949 23.1904L28.1627 24.7227C27.5472 25.3381 26.8374 25.8114 26.0338 26.1426C25.2836 26.4514 24.5001 26.6047 23.6832 26.6074L24.981 27.9043L23.4488 29.4365C22.8333 30.052 22.1236 30.5253 21.3199 30.8564C20.5162 31.1873 19.6739 31.3428 18.7935 31.3223C18.0571 31.2731 17.3509 31.1118 16.6754 30.8389C15.9998 30.5658 15.3901 30.187 14.8463 29.7021L14.5367 29.3926L11.6343 32.2949L10.0435 30.7041L14.3892 26.3574L14.2564 26.2256C13.7362 25.6464 13.3362 24.9905 13.0562 24.2588C12.7762 23.527 12.6315 22.7632 12.6216 21.9678C12.6072 21.089 12.764 20.2472 13.0923 19.4424C13.4208 18.6375 13.8927 17.9272 14.5074 17.3125L16.0396 15.7812L17.3365 17.0781C17.3444 16.2627 17.4999 15.4795 17.8062 14.7285C18.1346 13.9236 18.6066 13.2133 19.2213 12.5986L20.7535 11.0664L22.0504 12.3643C22.0583 11.5489 22.2137 10.7656 22.5201 10.0146C22.8485 9.20973 23.3204 8.49946 23.9351 7.88477L25.4673 6.35254L26.9996 7.88477ZM18.9117 26.7266C18.3814 26.7266 17.8705 26.8396 17.3795 27.0654C16.8888 27.2912 16.442 27.5755 16.0396 27.9189C16.3342 28.2136 16.7389 28.482 17.2545 28.7227C17.77 28.9632 18.3225 29.083 18.9117 29.083C19.442 29.083 19.948 28.9748 20.4293 28.7588C20.9104 28.5427 21.3577 28.2578 21.7701 27.9043C21.3576 27.5507 20.9105 27.2659 20.4293 27.0498C19.9481 26.8338 19.442 26.7266 18.9117 26.7266ZM16.0396 18.9922C15.6861 19.4047 15.4012 19.8518 15.1851 20.333C14.9691 20.8141 14.861 21.3195 14.8609 21.8496C14.8609 22.3799 14.971 22.8889 15.192 23.375C15.4129 23.8611 15.7007 24.3102 16.0543 24.7227C16.3488 24.4281 16.6165 24.0232 16.857 23.5078C17.0976 22.9922 17.2173 22.4389 17.2173 21.8496C17.2173 21.3195 17.1072 20.8112 16.8863 20.3252C16.6654 19.8392 16.3832 19.3948 16.0396 18.9922ZM23.6255 22.0117C23.0953 22.0117 22.5843 22.1247 22.0933 22.3506C21.6025 22.5764 21.156 22.8615 20.7535 23.2051C21.0481 23.4996 21.4529 23.7672 21.9683 24.0078C22.4839 24.2484 23.0363 24.3691 23.6255 24.3691C24.1559 24.3691 24.6619 24.261 25.1431 24.0449C25.6243 23.8289 26.0715 23.544 26.4839 23.1904C26.0715 22.8369 25.6243 22.552 25.1431 22.3359C24.6619 22.1199 24.1559 22.0117 23.6255 22.0117ZM20.7535 14.2783C20.4001 14.6906 20.115 15.1371 19.899 15.6182C19.683 16.0993 19.5748 16.6055 19.5748 17.1357C19.5748 17.6661 19.6849 18.175 19.9058 18.6611C20.1268 19.1472 20.4146 19.5964 20.7681 20.0088C21.0627 19.7142 21.3303 19.3085 21.5709 18.793C21.8114 18.2775 21.9312 17.7249 21.9312 17.1357C21.9312 16.6055 21.8211 16.0974 21.6002 15.6113C21.3792 15.1253 21.0971 14.6809 20.7535 14.2783ZM28.3394 17.2979C27.8094 17.2979 27.2989 17.411 26.8082 17.6367C26.3172 17.8626 25.87 18.1475 25.4673 18.4912C25.7619 18.7858 26.1668 19.0534 26.6822 19.2939C27.1977 19.5345 27.7503 19.6552 28.3394 19.6553C28.8697 19.6553 29.3758 19.5471 29.857 19.3311C30.3382 19.115 30.7853 18.8301 31.1978 18.4766C30.7853 18.123 30.3382 17.8381 29.857 17.6221C29.3758 17.4061 28.8697 17.2979 28.3394 17.2979ZM25.4673 9.56445C25.1139 9.97679 24.8289 10.4233 24.6129 10.9043C24.3968 11.3854 24.2887 11.8916 24.2886 12.4219C24.2886 12.9522 24.3997 13.4611 24.6207 13.9473C24.8416 14.4332 25.1286 14.8826 25.482 15.2949C25.7766 15.0003 26.0441 14.5947 26.2847 14.0791C26.5253 13.5636 26.6461 13.0111 26.6461 12.4219C26.646 11.8916 26.535 11.3835 26.314 10.8975C26.0931 10.4114 25.811 9.96704 25.4673 9.56445Z" fill="#F2994A"/>
</svg>
