<svg width="48" height="48" viewBox="0 0 48 48" fill="none" xmlns="http://www.w3.org/2000/svg">
<mask id="mask0_2150_54" style="mask-type:alpha" maskUnits="userSpaceOnUse" x="0" y="0" width="48" height="48">
<rect width="48" height="48" fill="#D9D9D9"/>
</mask>
<g mask="url(#mask0_2150_54)">
<path d="M35.263 43.2155H12.95V16.824L26.539 2.73499L29.04 4.60798C29.2917 4.80498 29.4852 5.09082 29.6205 5.46548C29.7562 5.83982 29.824 6.29115 29.824 6.81949V7.06548L27.6305 16.824H42.298C43.3354 16.824 44.2595 17.2228 45.0705 18.0205C45.8815 18.8185 46.287 19.74 46.287 20.785V23.605C46.287 23.878 46.3074 24.1592 46.348 24.4485C46.3884 24.7378 46.3492 24.9992 46.2305 25.2325L39.8175 40.1C39.4538 40.9793 38.84 41.7185 37.976 42.3175C37.112 42.9162 36.2077 43.2155 35.263 43.2155ZM16.6 39.2545H35.913L42.2695 24.163V20.785H23.0545L25.45 9.38048L16.6 18.7805V39.2545ZM12.95 16.824V20.785H6.95001V39.2545H12.95V43.2155H2.98901V16.824H12.95Z" fill="#A31E2C"/>
</g>
</svg>
