<svg width="48" height="48" viewBox="0 0 48 48" fill="none" xmlns="http://www.w3.org/2000/svg">
<mask id="mask0_2150_51" style="mask-type:alpha" maskUnits="userSpaceOnUse" x="0" y="0" width="48" height="48">
<rect width="48" height="48" fill="#D9D9D9"/>
</mask>
<g mask="url(#mask0_2150_51)">
<path d="M11.5649 28C11.5649 29.799 11.9458 31.4962 12.7074 33.0915C13.4691 34.6869 14.5493 36.0354 15.9479 37.137C15.8146 36.8167 15.7146 36.48 15.6479 36.127C15.5813 35.7744 15.5479 35.4262 15.5479 35.0825C15.6419 34.1102 15.8936 33.2044 16.3029 32.365C16.7126 31.526 17.2724 30.7515 17.9824 30.0415L23.9999 24.0955L30.0454 30.0415C30.7558 30.7515 31.3156 31.526 31.7249 32.365C32.1343 33.2044 32.3766 34.1102 32.4519 35.0825C32.4519 35.4262 32.4186 35.7744 32.3519 36.127C32.2853 36.48 32.1948 36.8167 32.0804 37.137C33.4411 36.0354 34.5118 34.6869 35.2924 33.0915C36.0728 31.4962 36.4629 29.799 36.4629 28C36.4629 26.3507 36.1163 24.728 35.4229 23.132C34.7296 21.5357 33.7343 20.0605 32.4369 18.7065C31.7369 19.1502 31.0098 19.4995 30.2554 19.7545C29.5011 20.0095 28.7656 20.137 28.0489 20.137C26.0729 20.137 24.4041 19.5065 23.0424 18.2455C21.6808 16.9849 20.8963 15.3422 20.6889 13.3175V12.3175C19.2846 13.3595 18.0231 14.5099 16.9044 15.7685C15.7854 17.0272 14.8303 18.3344 14.0389 19.69C13.2476 21.046 12.6374 22.4352 12.2084 23.8575C11.7794 25.2802 11.5649 26.661 11.5649 28ZM23.9999 29.652L20.7679 32.864C20.3153 33.297 19.9781 33.771 19.7564 34.286C19.5348 34.801 19.4239 35.3642 19.4239 35.9755C19.4239 37.2242 19.8713 38.2795 20.7659 39.1415C21.6606 40.0039 22.7403 40.435 24.0049 40.435C25.2696 40.435 26.3476 40.0017 27.2389 39.135C28.1303 38.2684 28.5759 37.2099 28.5759 35.9595C28.5759 35.3675 28.4658 34.8137 28.2454 34.298C28.0248 33.782 27.7006 33.3075 27.2729 32.8745L23.9999 29.652ZM24.4239 5.32153V12.6C24.4239 13.6134 24.7743 14.4627 25.4749 15.148C26.1759 15.8334 27.0334 16.176 28.0474 16.176C28.5848 16.176 29.0854 16.0652 29.5494 15.8435C30.0134 15.6219 30.4266 15.2799 30.7889 14.8175L31.8869 13.435C34.5273 14.946 36.6103 17.0039 38.1359 19.6085C39.6613 22.2129 40.4239 25.0072 40.4239 27.9915C40.4239 32.5789 38.8326 36.4645 35.6499 39.6485C32.4676 42.8322 28.5836 44.424 23.9979 44.424C19.4126 44.424 15.5293 42.8329 12.3479 39.6505C9.16659 36.4685 7.57593 32.5849 7.57593 27.9995C7.57593 23.6389 9.07993 19.4082 12.0879 15.3075C15.0959 11.2069 19.2079 7.8782 24.4239 5.32153Z" fill="#EB5757"/>
</g>
</svg>
