<svg width="48" height="48" viewBox="0 0 48 48" fill="none" xmlns="http://www.w3.org/2000/svg">
<mask id="mask0_2150_48" style="mask-type:alpha" maskUnits="userSpaceOnUse" x="0" y="0" width="48" height="48">
<rect width="48" height="48" fill="#D9D9D9"/>
</mask>
<g mask="url(#mask0_2150_48)">
<path d="M22.1326 41.8674V26.4739H21.1326C18.9993 26.4363 17.0004 25.9996 15.1361 25.1639C13.2714 24.3286 11.6058 23.1514 10.1391 21.6324C8.63676 20.0991 7.49593 18.3239 6.7166 16.3069C5.9376 14.2899 5.5481 12.1876 5.5481 9.99993V5.57593H9.8881C12.0018 5.57593 14.0356 5.99409 15.9896 6.83043C17.9436 7.66676 19.6913 8.85293 21.2326 10.3889C22.2763 11.4659 23.1433 12.6646 23.8336 13.9849C24.5239 15.3053 25.0359 16.6964 25.3696 18.1584C25.5683 17.8478 25.7868 17.5483 26.0251 17.2599C26.2631 16.9713 26.5033 16.6809 26.7456 16.3889C28.2869 14.8529 30.0344 13.6668 31.9881 12.8304C33.9421 11.9941 35.9928 11.5759 38.1401 11.5759H42.4806V15.9999C42.4806 18.1876 42.0663 20.2899 41.2376 22.3069C40.4086 24.3239 39.2424 26.0991 37.7391 27.6324C36.2391 29.1514 34.5511 30.3203 32.6751 31.1389C30.7994 31.9579 28.8396 32.3863 26.7956 32.4239H25.8956V41.8674H22.1326ZM22.1826 22.6324C22.1826 20.8251 21.8634 19.0843 21.2251 17.4099C20.5868 15.7353 19.6906 14.2993 18.5366 13.1019C17.4396 11.9613 16.0958 11.0631 14.5051 10.4074C12.9148 9.75176 11.1928 9.40509 9.3391 9.36743C9.37676 11.3544 9.68993 13.1711 10.2786 14.8174C10.8669 16.4638 11.7161 17.8659 12.8261 19.0239C14.1508 20.4296 15.5696 21.3731 17.0826 21.8544C18.5956 22.3354 20.2956 22.5948 22.1826 22.6324ZM25.8956 28.6609C27.6886 28.6609 29.3926 28.3453 31.0076 27.7139C32.6229 27.0829 34.0044 26.1733 35.1521 24.9849C36.2434 23.8529 37.0916 22.4638 37.6966 20.8174C38.3019 19.1711 38.6328 17.3544 38.6891 15.3674C36.7834 15.4051 35.0389 15.7516 33.4556 16.4069C31.8723 17.0626 30.5313 17.9523 29.4326 19.0759C28.0753 20.5083 27.1606 21.9921 26.6886 23.5274C26.2166 25.0631 25.9523 26.7743 25.8956 28.6609Z" fill="#27AE60"/>
</g>
</svg>
