<svg width="48" height="48" viewBox="0 0 48 48" fill="none" xmlns="http://www.w3.org/2000/svg">
<mask id="mask0_2150_24" style="mask-type:alpha" maskUnits="userSpaceOnUse" x="0" y="0" width="48" height="48">
<rect width="48" height="48" fill="#D9D9D9"/>
</mask>
<g mask="url(#mask0_2150_24)">
<path d="M23.9971 42.2751C20.0114 42.2751 16.6363 40.8818 13.8716 38.0951C11.1073 35.3081 9.7251 31.9033 9.7251 27.8806C9.7251 25.2956 10.1581 22.6938 11.0241 20.0751C11.8901 17.4561 13.0099 15.0808 14.3836 12.9491C15.7573 10.8174 17.2948 9.0806 18.9961 7.7386C20.6971 6.39627 22.3641 5.7251 23.9971 5.7251C25.6644 5.7251 27.3414 6.39627 29.0281 7.7386C30.7151 9.0806 32.2451 10.8174 33.6181 12.9491C34.9908 15.0808 36.1101 17.4561 36.9761 20.0751C37.8421 22.6938 38.2751 25.2956 38.2751 27.8806C38.2751 31.9033 36.8919 35.3081 34.1256 38.0951C31.3589 40.8818 27.9828 42.2751 23.9971 42.2751ZM24.0031 39.8686C27.3051 39.8686 30.1083 38.7046 32.4126 36.3766C34.7166 34.0486 35.8686 31.2206 35.8686 27.8926C35.8686 25.7243 35.4968 23.4793 34.7531 21.1576C34.0094 18.8363 33.0479 16.7153 31.8686 14.7946C30.6893 12.8743 29.4023 11.2836 28.0076 10.0226C26.6129 8.76193 25.2731 8.1316 23.9881 8.1316C22.7051 8.1316 21.3649 8.7506 19.9676 9.9886C18.5703 11.2266 17.2884 12.8091 16.1221 14.7361C14.9554 16.6628 13.9988 18.7931 13.2521 21.1271C12.5051 23.4614 12.1316 25.7126 12.1316 27.8806C12.1316 31.2199 13.2846 34.0528 15.5906 36.3791C17.8966 38.7054 20.7008 39.8686 24.0031 39.8686Z" fill="#1C1B1F"/>
<path d="M29.6571 34.6571C28.0952 36.219 26.2095 37 24 37C21.7905 37 19.9048 36.219 18.3429 34.6571C16.781 33.0952 16 31.2095 16 29C16 26.7905 16.781 24.9048 18.3429 23.3429C19.9048 21.781 21.7905 21 24 21C26.2095 21 28.0952 21.781 29.6571 23.3429C31.219 24.9048 32 26.7905 32 29C32 31.2095 31.219 33.0952 29.6571 34.6571Z" fill="#F2C94C"/>
</g>
</svg>
